<?xml version="1.0" encoding="UTF-8" standalone="no"?>
<!-- Created with Inkscape (http://www.inkscape.org/) -->

<svg
   xmlns:dc="http://purl.org/dc/elements/1.1/"
   xmlns:cc="http://creativecommons.org/ns#"
   xmlns:rdf="http://www.w3.org/1999/02/22-rdf-syntax-ns#"
   xmlns:svg="http://www.w3.org/2000/svg"
   xmlns="http://www.w3.org/2000/svg"
   xmlns:sodipodi="http://sodipodi.sourceforge.net/DTD/sodipodi-0.dtd"
   xmlns:inkscape="http://www.inkscape.org/namespaces/inkscape"
   width="744.09448819"
   height="1052.3622047"
   id="svg2"
   version="1.1"
   inkscape:version="0.48.2 r9819"
   sodipodi:docname="engine.svg">
  <defs
     id="defs4">
    <inkscape:perspective
       sodipodi:type="inkscape:persp3d"
       inkscape:vp_x="0 : 526.18109 : 1"
       inkscape:vp_y="0 : 1000 : 0"
       inkscape:vp_z="744.09448 : 526.18109 : 1"
       inkscape:persp3d-origin="372.04724 : 350.78739 : 1"
       id="perspective2985" />
  </defs>
  <sodipodi:namedview
     id="base"
     pagecolor="#ffffff"
     bordercolor="#666666"
     borderopacity="1.0"
     inkscape:pageopacity="0.0"
     inkscape:pageshadow="2"
     inkscape:zoom="1.5390621"
     inkscape:cx="313.27834"
     inkscape:cy="848.06506"
     inkscape:document-units="px"
     inkscape:current-layer="layer1"
     showgrid="false"
     inkscape:window-width="1366"
     inkscape:window-height="744"
     inkscape:window-x="0"
     inkscape:window-y="24"
     inkscape:window-maximized="1" />
  <metadata
     id="metadata7">
    <rdf:RDF>
      <cc:Work
         rdf:about="">
        <dc:format>image/svg+xml</dc:format>
        <dc:type
           rdf:resource="http://purl.org/dc/dcmitype/StillImage" />
        <dc:title></dc:title>
      </cc:Work>
    </rdf:RDF>
  </metadata>
  <g
     inkscape:label="Layer 1"
     inkscape:groupmode="layer"
     id="layer1">
    <g
       sodipodi:type="inkscape:box3d"
       style="fill:#000000;fill-opacity:0;stroke:#ff3e3e;stroke-width:0.89999998;stroke-linejoin:bevel;stroke-miterlimit:4;stroke-opacity:1;stroke-dasharray:none"
       id="g2987"
       inkscape:perspectiveID="#perspective2985"
       inkscape:corner0="1.629169 : 1.3624829 : 0 : 1"
       inkscape:corner7="0.58160952 : 0.73835783 : 0.25 : 1">
      <path
         sodipodi:type="inkscape:box3dside"
         id="path2999"
         style="fill:#e9e9ff;fill-rule:evenodd;stroke:none"
         inkscape:box3dsidetype="11"
         d="m 193.83053,113.87838 110.85824,-235.80988 0,340.75225 -110.85824,111.83027 z" />
      <path
         sodipodi:type="inkscape:box3dside"
         id="path2989"
         style="fill:#353564;fill-rule:evenodd;stroke:none"
         inkscape:box3dsidetype="6"
         d="m 141.50754,74.673715 0,237.384915 52.32299,18.59239 0,-216.77264 z" />
      <path
         sodipodi:type="inkscape:box3dside"
         id="path2991"
         style="fill:#4d4d9f;fill-rule:evenodd;stroke:none"
         inkscape:box3dsidetype="5"
         d="M 141.50754,74.673715 235.23331,-224.37661 304.68877,-121.9315 193.83053,113.87838 z" />
      <path
         sodipodi:type="inkscape:box3dside"
         id="path2997"
         style="fill:#afafde;fill-rule:evenodd;stroke:none"
         inkscape:box3dsidetype="13"
         d="m 141.50754,312.05863 93.72577,-141.82135 69.45546,48.58347 -110.85824,111.83027 z" />
      <path
         sodipodi:type="inkscape:box3dside"
         id="path2995"
         style="fill:#d7d7ff;fill-rule:evenodd;stroke:none"
         inkscape:box3dsidetype="14"
         d="m 235.23331,-224.37661 0,394.61389 69.45546,48.58347 0,-340.75225 z" />
      <path
         sodipodi:type="inkscape:box3dside"
         id="path2993"
         style="fill:#8686bf;fill-rule:evenodd;stroke:none"
         inkscape:box3dsidetype="3"
         d="m 141.50754,74.673715 93.72577,-299.050325 0,394.61389 -93.72577,141.82135 z" />
    </g>
    <rect
       style="fill:#000000;fill-opacity:0;stroke:#ff3e3e;stroke-width:9;stroke-linejoin:round;stroke-miterlimit:4;stroke-opacity:1;stroke-dasharray:none;stroke-linecap:round"
       id="rect3001"
       width="143.34529"
       height="62.483849"
       x="262.79971"
       y="221.69456" />
    <text
       xml:space="preserve"
       style="font-size:40px;font-style:normal;font-weight:normal;line-height:125%;letter-spacing:0px;word-spacing:0px;fill:#000000;fill-opacity:1;stroke:none;font-family:Sans"
       x="275.82547"
       y="261.52628"
       id="text3003"
       sodipodi:linespacing="125%"><tspan
         sodipodi:role="line"
         id="tspan3005"
         x="275.82547"
         y="261.52628"
         style="font-size:30px">Storage</tspan></text>
    <rect
       style="fill:#00ff00;fill-opacity:0;stroke:#008000;stroke-width:9;stroke-linecap:round;stroke-linejoin:round;stroke-miterlimit:4;stroke-opacity:1;stroke-dasharray:none"
       id="rect3001-2"
       width="143.34529"
       height="62.483849"
       x="71.271545"
       y="126.41952" />
    <text
       xml:space="preserve"
       style="font-size:40px;font-style:normal;font-weight:normal;line-height:125%;letter-spacing:0px;word-spacing:0px;fill:#000000;fill-opacity:1;stroke:none;font-family:Sans"
       x="89.200851"
       y="166.302"
       id="text3003-3"
       sodipodi:linespacing="125%"><tspan
         sodipodi:role="line"
         id="tspan3005-8"
         x="89.200851"
         y="166.302"
         style="font-size:30px">Runner</tspan></text>
    <rect
       style="fill:#00ff00;fill-opacity:0;stroke:#008080;stroke-width:10;stroke-linecap:round;stroke-linejoin:round;stroke-miterlimit:4;stroke-opacity:1;stroke-dasharray:none"
       id="rect3001-2-7"
       width="397.56451"
       height="62.483849"
       x="69.322311"
       y="21.16062" />
    <text
       xml:space="preserve"
       style="font-size:40px;font-style:normal;font-weight:normal;line-height:125%;letter-spacing:0px;word-spacing:0px;fill:#000000;fill-opacity:1;stroke:none;font-family:Sans"
       x="237.80716"
       y="64.097969"
       id="text3842"
       sodipodi:linespacing="125%"><tspan
         sodipodi:role="line"
         id="tspan3844"
         x="237.80716"
         y="64.097969">API</tspan></text>
    <path
       style="fill:#808080;fill-opacity:0;stroke:#999999;stroke-width:10;stroke-linecap:round;stroke-linejoin:round;stroke-miterlimit:4;stroke-opacity:1;stroke-dasharray:none"
       id="path3854"
       d="m 331.85273,82.379472 c 0.74903,1.987025 1.64227,3.913168 2.40313,5.897052 0.78614,1.632236 1.51923,3.298966 2.48313,4.836218 0.97316,1.538386 1.72218,3.201204 2.52783,4.829262 1.10686,2.467456 2.1372,4.971496 3.12423,7.489926 1.36111,3.09673 2.37338,6.32639 3.61818,9.46727 1.25874,2.9814 2.42752,5.99198 3.48526,9.05018 1.25154,3.50889 2.433,7.04382 3.70035,10.54714 1.16119,3.32479 2.06416,6.73443 2.86929,10.16089 0.59733,2.59539 0.86986,5.24057 0.97129,7.89657 0.0485,2.21232 0.0362,4.42535 0.0444,6.63805 0.0638,2.36521 -0.10881,4.71331 -0.31641,7.06663 -0.22482,2.67888 -0.52473,5.35673 -1.06158,7.99208 -0.64775,3.16383 -1.31572,6.32366 -1.98178,9.48374 -0.63625,3.04238 -1.2884,6.08204 -1.96717,9.11534 -0.80378,3.14589 -1.55099,6.30392 -2.28021,9.46791 -0.55403,2.18012 -1.20165,4.33244 -1.77925,6.5063 -0.56882,2.20986 -1.45063,4.30553 -2.29766,6.41651 -0.3885,0.95216 -0.78283,1.90025 -1.20704,2.83697 0,0 -8.71319,3.9423 -8.71319,3.9423 l 0,0 c 0.49592,-0.90216 0.88136,-1.84041 1.2913,-2.78492 0.81675,-2.08949 1.74396,-4.13365 2.32293,-6.30913 0.59699,-2.17619 1.1792,-4.35246 1.85548,-6.5066 0.74768,-3.16364 1.55532,-6.31185 2.31139,-9.47318 0.67857,-3.03606 1.33104,-6.07728 1.98847,-9.11754 0.69233,-3.14157 1.30014,-6.30345 1.95366,-9.45286 0.50269,-2.60672 0.88336,-5.23263 1.07592,-7.88269 0.19294,-2.32114 0.40496,-4.63657 0.29658,-6.96945 0.0242,-2.20679 0.0431,-4.41413 -6.8e-4,-6.6208 -0.0743,-2.61431 -0.24306,-5.22959 -0.7796,-7.79646 -0.73358,-3.41007 -1.73075,-6.74993 -2.81468,-10.06436 -1.21449,-3.52416 -2.40719,-7.05518 -3.72629,-10.54233 -1.03921,-3.05201 -2.22431,-6.03932 -3.48124,-9.00849 -1.20727,-3.15486 -2.21773,-6.38316 -3.57789,-9.47969 -1.01257,-2.47821 -2.12941,-4.9072 -3.22024,-7.35098 -0.79125,-1.60531 -1.57393,-3.213618 -2.52074,-4.736075 -0.95419,-1.610489 -1.74853,-3.310048 -2.51092,-5.018513 -0.76647,-1.994022 -1.59144,-3.954925 -2.53647,-5.872348 0,0 8.45025,-4.653922 8.45025,-4.653922 z"
       inkscape:connector-curvature="0" />
    <path
       style="fill:#808080;fill-opacity:0;stroke:#999999;stroke-width:10;stroke-linecap:round;stroke-linejoin:round;stroke-miterlimit:4;stroke-opacity:1;stroke-dasharray:none"
       id="path3858"
       d="m 149.6674,85.982602 c -1.08494,1.278096 -1.87447,2.754681 -2.70538,4.199642 -0.87408,1.499901 -1.48855,3.129002 -2.07286,4.757937 -0.46815,1.788623 -1.02604,3.535617 -1.69769,5.258739 -0.74212,1.97001 -1.37917,3.97633 -2.10873,5.95079 -1.06722,2.78434 -2.22533,5.5308 -3.29118,8.3157 -1.12649,2.99053 -2.09438,6.04587 -2.96895,9.11936 -0.67792,2.42696 -1.32575,4.86378 -1.89528,7.31867 0,0 -8.55507,4.11024 -8.55507,4.11024 l 0,0 c 0.60354,-2.47681 1.28578,-4.93464 1.96492,-7.39138 0.84049,-3.09356 1.7894,-6.1654 2.88177,-9.17884 1.07315,-2.76795 2.20768,-5.51062 3.25669,-8.28749 0.73535,-1.96449 1.32571,-3.97544 2.05249,-5.94311 0.67425,-1.71036 1.32042,-3.41796 1.70724,-5.221432 0.55923,-1.666553 1.15145,-3.335044 1.96409,-4.897159 0.81437,-1.472097 1.65761,-2.925245 2.59775,-4.321983 0,0 8.87019,-3.789684 8.87019,-3.789684 z"
       inkscape:connector-curvature="0" />
    <path
       style="fill:#808080;fill-opacity:0;stroke:#999999;stroke-width:10;stroke-linecap:round;stroke-linejoin:round;stroke-miterlimit:4;stroke-opacity:1;stroke-dasharray:none"
       id="path3860"
       d="m 224.10761,152.64599 c 2.77135,1.43621 5.79324,2.3055 8.74929,3.27616 4.6305,1.58556 9.36456,2.82372 14.06917,4.16155 4.64348,1.10835 9.22,2.46542 13.79981,3.80688 4.9624,1.29982 9.91258,2.63766 14.82563,4.11433 4.86543,1.32231 9.6245,2.99974 14.31633,4.83753 5.42965,2.16396 10.84837,4.35562 16.27044,6.53892 4.07261,1.88235 8.20697,3.62239 12.26492,5.53565 1.34674,0.6975 2.61834,1.48617 3.63896,2.61416 1.08473,1.31656 2.0224,2.71399 2.83262,4.2158 1.39184,2.50712 2.86594,4.96963 4.43828,7.36747 2.15608,3.39528 4.52704,6.64842 6.83835,9.93919 2.13817,2.98943 4.31724,5.94836 6.47594,8.92354 1.14261,1.52387 2.27702,3.05249 3.45685,4.54787 0,0 -8.1475,4.85263 -8.1475,4.85263 l 0,0 c -1.16038,-1.52375 -2.28712,-3.07212 -3.43092,-4.60831 -2.10201,-3.01358 -4.2579,-5.98858 -6.39783,-8.97481 -2.32573,-3.29321 -4.66255,-6.57988 -6.89607,-9.93626 -1.6092,-2.40514 -3.16363,-4.85292 -4.61196,-7.35813 -0.79396,-1.42391 -1.7043,-2.745 -2.79252,-3.96304 -0.9571,-0.99523 -2.11432,-1.73814 -3.31425,-2.41286 -3.9155,-2.0508 -7.94314,-3.87139 -11.99556,-5.63485 -5.38156,-2.26137 -10.82414,-4.37209 -16.24885,-6.52656 -4.70533,-1.76391 -9.47551,-3.36522 -14.30533,-4.75447 -4.94056,-1.40569 -9.86927,-2.85201 -14.8545,-4.09443 -4.58079,-1.33639 -9.17339,-2.62181 -13.79699,-3.80319 -4.71542,-1.36477 -9.46956,-2.5923 -14.12505,-4.15847 -3.07367,-0.96434 -6.1847,-1.84362 -9.11329,-3.20703 0,0 8.05403,-5.29927 8.05403,-5.29927 z"
       inkscape:connector-curvature="0" />
  </g>
</svg>
